Coordinates
version=1
nRows=13
nColumns=34
inDegrees=yes

Units are S.I. units (second, meters, Newtons, ...)
If the header above contains a line with 'inDegrees', this indicates whether rotational values are in degrees (yes) or radians (no).

endheader
time	pelvis_tilt	pelvis_list	pelvis_rotation	pelvis_tx	pelvis_ty	pelvis_tz	hip_flexion_r	hip_adduction_r	hip_rotation_r	knee_angle_r	ankle_angle_r	subtalar_angle_r	mtp_angle_r	hip_flexion_l	hip_adduction_l	hip_rotation_l	knee_angle_l	ankle_angle_l	subtalar_angle_l	mtp_angle_l	lumbar_extension	lumbar_bending	lumbar_rotation	arm_flex_r	arm_add_r	arm_rot_r	elbow_flex_r	pro_sup_r	arm_flex_l	arm_add_l	arm_rot_l	elbow_flex_l	pro_sup_l
      0.00000000	      0.99350821	     23.69090006	     16.90498985	     -0.56012568	      0.47157336	      0.03310121	     96.31331032	     -5.49246225	      8.53340417	     52.25052910	    -14.75588880	    -28.87166599	      0.00000000	     93.84616719	      5.50749828	    -19.17592451	     72.80219019	     50.00000000	     35.00000000	      0.00000000	    -52.12584773	    -11.87652371	     11.28939081	    101.32955791	    -37.23475435	     39.00173632	     30.53444610	     78.09508872	    145.13832245	     15.28821957	     48.64349228	     53.16078847	     61.39910371
      0.01666670	      0.69162633	     19.67801797	      7.82583539	     -0.56106379	      0.46532785	      0.05131472	     95.58436246	      2.91955057	     10.27217131	     52.86718996	    -13.48913369	    -19.75686023	      0.00000000	     92.84637752	     -3.57835955	    -18.21173187	     68.09400109	     50.00000000	     13.27789562	      0.00000000	    -51.38247797	    -12.40261821	     21.33080496	    105.57023708	    -37.74265283	     39.38528580	     29.64452778	     78.36095162	    146.93231291	      7.69103061	     48.86805510	     57.25123130	     61.60654685
      0.03333330	     -0.48594091	     15.49118141	      6.33413442	     -0.55944424	      0.45423314	      0.05116897	     97.28426952	      3.06935970	      4.66634119	     53.12804273	     -8.79881025	    -16.77688226	      0.00000000	     96.13851841	     -4.94379573	    -11.68634572	     68.09766111	     50.00000000	     -6.49754909	      0.00000000	    -49.11710688	     -8.56821000	     25.89928567	    103.67042124	    -38.01328752	     39.34830607	     29.80921205	     77.04159132	    142.62328221	      7.35111753	     46.09052161	     56.99285278	     61.04369674
      0.05000000	     -1.63218628	     12.88633967	      5.86096461	     -0.56700344	      0.45062463	      0.05388133	     98.51158814	      3.92844886	      2.74503949	     54.06483023	     -7.91670927	    -19.54469657	      0.00000000	     98.67168494	     -5.24960107	     -8.24942940	     67.97960362	     50.00000000	    -12.51753547	      0.00000000	    -48.58158243	     -5.96694828	     26.08467624	    101.23978421	    -35.76578957	     38.81113249	     30.23345406	     75.95045827	    141.83452660	      7.30666975	     47.00006688	     54.10969516	     60.96079913
      0.06666670	     -1.21405241	     11.09120059	      5.94082450	     -0.55809486	      0.44653811	      0.05184499	     98.26187902	      4.51147927	      0.90451530	     53.03122825	     -7.83074947	    -19.35528512	      0.00000000	     99.88867406	     -4.26377294	     -6.02864051	     68.55053111	     50.00000000	    -16.69614178	      0.00000000	    -49.49933200	     -3.33753964	     23.35174860	     94.85559008	    -31.81200641	     32.59534991	     33.55287822	     73.52788797	    141.52995266	      6.41334760	     49.24375282	     51.92422911	     60.54343961
      0.08333330	     -1.80970002	      9.74760842	      5.44598628	     -0.55389440	      0.44878402	      0.04539814	     99.24817284	      5.23363955	      0.00605930	     53.60204075	     -8.24340496	    -20.17303768	      0.00000000	    101.34401420	     -4.19262088	     -4.20167415	     69.39930486	     50.00000000	     -6.08613605	      0.00000000	    -49.18535267	     -1.44833853	     21.91141819	     88.35633785	    -29.31057164	     28.02314487	     36.85817037	     73.52727404	    138.61484404	      6.33298470	     49.00357421	     51.61964322	     60.02443178
      0.10000000	     -1.81187387	      9.22860577	      4.62418125	     -0.56063969	      0.45223909	      0.04873748	     99.04179045	      6.15284217	     -0.10705438	     53.17445591	     -8.93499800	    -19.81382802	      0.00000000	    101.49255458	     -4.50167297	     -3.85443585	     69.90321857	     50.00000000	      0.13232792	      0.00000000	    -50.12880057	     -0.70207509	     20.06398534	     83.20399709	    -26.59316334	     21.30915347	     39.64760291	     75.31962463	    137.41443898	      6.08957688	     49.05327072	     51.15736430	     59.54597603
      0.11666670	     -2.93201780	      9.27871250	      3.80754766	     -0.54353712	      0.46084381	      0.03931630	     99.95216351	      6.48022691	     -0.17482451	     54.14741919	     -8.99939312	    -19.71102248	      0.00000000	    102.33415884	     -4.73427169	     -3.19553277	     70.71978798	     50.00000000	      3.21326086	      0.00000000	    -49.52039449	     -0.19300700	     19.01773296	     76.52980423	    -26.19090036	     15.69209063	     43.92391059	     77.37703742	    133.42477516	      6.27365635	     46.25901424	     53.39241492	     59.35051565
      0.13333330	     -4.62042346	      9.44164544	      3.59548841	     -0.52354493	      0.46217647	      0.03322491	    101.56375526	      6.00150186	     -0.77067843	     55.35306118	     -7.32415755	    -18.17725825	      0.00000000	    103.80991880	     -4.64733065	     -3.09043163	     72.27294936	     50.00000000	      2.97836128	      0.00000000	    -48.10095514	      0.23851666	     17.89780125	     68.78278427	    -25.64651753	      9.08228372	     49.48567129	     79.71517288	    129.99806333	      7.24993308	     43.54143978	     55.18623667	     59.72954355
      0.15000000	     -5.40340198	      9.89507164	      3.37936398	     -0.52802294	      0.45595909	      0.03402254	    102.58501913	      5.48650723	     -1.48631963	     55.86268892	     -5.46269190	    -15.32376815	      0.00000000	    104.56809879	     -4.52193159	     -3.46867195	     72.61624319	     50.00000000	     -2.27636290	      0.00000000	    -47.66618947	      0.30801981	     15.85205664	     64.41924553	    -24.09634389	      5.98082579	     53.02720246	     81.75425058	    128.76593861	      7.48700443	     42.80889873	     54.73207425	     60.16117524
      0.16666670	     -5.97593889	     10.27098274	      3.36766230	     -0.52238488	      0.45129677	      0.03049966	    103.81861424	      4.80027462	     -2.29869887	     56.70203350	     -3.98950047	    -12.63699482	      0.00000000	    105.46135714	     -4.28501272	     -3.73698831	     73.16995072	     50.00000000	     -8.31398323	      0.00000000	    -47.02175075	      0.49322297	     14.08347624	     59.79100247	    -22.97488831	      3.32007765	     56.81692091	     85.40765066	    127.56717777	      7.99743629	     41.51786458	     53.79831955	     60.59929558
      0.18333330	     -6.34937046	     10.25073013	      3.13844294	     -0.51293661	      0.45300022	      0.03351287	    104.66030351	      4.28680759	     -3.61981508	     57.72559916	     -2.39522369	     -9.76882046	      0.00000000	    106.18434378	     -4.65629165	     -3.87007149	     73.59497161	     50.00000000	    -23.53492897	      0.00000000	    -46.66721395	      0.76219046	     12.73687462	     56.17988577	    -21.63076210	      2.22939006	     59.46023701	     87.07460606	    126.52707384	      7.97802011	     41.30581907	     52.74888918	     60.65170769
      0.20000000	     -6.30035897	     10.40448060	      2.70341299	     -0.51933200	      0.45026923	      0.03724931	    104.94927754	      4.05541664	     -4.82990101	     58.05743144	     -1.42707504	     -7.39296307	      0.00000000	    106.49503448	     -5.36094310	     -4.13413000	     73.98493687	     50.00000000	    -27.49799391	      0.00000000	    -47.02350058	      0.72628060	     10.75399176	     54.97378784	    -19.43035594	      2.73082495	     60.14537215	     88.05493145	    127.09562135	      7.66050573	     42.10748970	     48.89489247	     60.57413508
